<svg width="16" height="17" viewBox="0 0 16 17" fill="none" xmlns="http://www.w3.org/2000/svg">
<path d="M15.75 8.48534C15.7579 12.7553 12.2756 16.247 8.00562 16.25C6.16141 16.2513 4.46741 15.6084 3.13619 14.534C2.79003 14.2546 2.76416 13.7358 3.07872 13.4213L3.43081 13.0692C3.69984 12.8002 4.12934 12.7707 4.42741 13.0072C5.40819 13.7855 6.64941 14.25 8 14.25C11.1783 14.25 13.75 11.6778 13.75 8.5C13.75 5.32172 11.1778 2.75 8 2.75C6.47456 2.75 5.08909 3.34278 4.06038 4.31037L5.64644 5.89644C5.96144 6.21144 5.73834 6.75 5.29291 6.75H0.75C0.473844 6.75 0.25 6.52616 0.25 6.25V1.70709C0.25 1.26166 0.788562 1.03856 1.10356 1.35353L2.64644 2.89641C4.03778 1.56675 5.9235 0.75 8 0.75C12.2753 0.75 15.7421 4.21187 15.75 8.48534ZM10.0965 10.9473L10.4035 10.5527C10.6578 10.2257 10.5989 9.75447 10.2719 9.50019L9 8.51091V5.25C9 4.83578 8.66422 4.5 8.25 4.5H7.75C7.33578 4.5 7 4.83578 7 5.25V9.48909L9.04403 11.0789C9.371 11.3332 9.84219 11.2743 10.0965 10.9473Z" fill="#22D3EE"/>
</svg>
