<svg width="25" height="25" viewBox="0 0 25 25" fill="none" xmlns="http://www.w3.org/2000/svg">
<path d="M21.875 6.25L15.625 12.5M14.5835 17.7085H7.2915M11.4585 13.5415H7.2915" stroke="#22D3EE" stroke-linecap="round" stroke-linejoin="round"/>
<path d="M16.094 6.771H16.198M21.302 11.979H21.4065" stroke="#22D3EE" stroke-width="1.5" stroke-linecap="round" stroke-linejoin="round"/>
<path d="M18.75 16.6665V20.8335C18.75 21.1097 18.6403 21.3746 18.445 21.57C18.2496 21.7653 17.9847 21.875 17.7085 21.875H4.1665C3.89028 21.875 3.62537 21.7653 3.43005 21.57C3.23473 21.3746 3.125 21.1097 3.125 20.8335V4.1665C3.125 3.89028 3.23473 3.62537 3.43005 3.43005C3.62537 3.23473 3.89028 3.125 4.1665 3.125H11.4585" stroke="#22D3EE" stroke-linecap="round" stroke-linejoin="round"/>
</svg>
